<svg xmlns="http://www.w3.org/2000/svg" xmlns:xlink="http://www.w3.org/1999/xlink" width="24" height="24" viewBox="0 0 24 24" fill="none"><g opacity="1"  transform="translate(0 0)  rotate(0)"><path id="Rectangle 73" fill-rule="evenodd" style="fill:#E1E2E5" opacity="0.0001" d="M0 24L24 24L24 0L0 0L0 24Z"></path><g opacity="1"  transform="translate(2 3)  rotate(0)"><path  id="Rectangle 240" style="fill:#000000; opacity:1;" d="M2,17h16c0.5523,0 1,-0.4477 1,-1v-14c0,-0.55228 -0.4477,-1 -1,-1h-16c-0.55228,0 -1,0.44772 -1,1v14c0,0.5523 0.44772,1 1,1zM2,19c-1.65685,0 -3,-1.3431 -3,-3v-14c0,-1.65685 1.34315,-3 3,-3h16c1.6569,0 3,1.34315 3,3v14c0,1.6569 -1.3431,3 -3,3z"></path><path  id="Vector 43" style="fill:#EF3741; opacity:1;" d="M8.02349,5.96845l-1.14,2.15l-0.88349,-0.46845v-1h5.58c1.8943,0 3.42,1.53566 3.42,3.43c0,1.8888 -1.5312,3.42 -3.42,3.42h-5.58c-0.06566,0 -0.13069,-0.0064 -0.19509,-0.0192c-0.0644,-0.0128 -0.12693,-0.03177 -0.18759,-0.0569c-0.06067,-0.02513 -0.1183,-0.05593 -0.17289,-0.0924c-0.05459,-0.03653 -0.10511,-0.078 -0.15154,-0.1244c-0.04643,-0.0464 -0.08788,-0.0969 -0.12436,-0.1515c-0.03648,-0.0546 -0.06728,-0.11223 -0.09241,-0.1729c-0.02513,-0.06067 -0.0441,-0.1232 -0.05691,-0.1876c-0.01281,-0.0644 -0.01921,-0.12943 -0.01921,-0.1951c0,-0.06567 0.0064,-0.1307 0.01921,-0.1951c0.01281,-0.0644 0.03178,-0.12693 0.05691,-0.1876c0.02513,-0.06067 0.05593,-0.1183 0.09241,-0.1729c0.03648,-0.0546 0.07793,-0.1051 0.12436,-0.1515c0.04643,-0.04647 0.09695,-0.08793 0.15154,-0.1244c0.05459,-0.03647 0.11222,-0.06727 0.17289,-0.0924c0.06066,-0.02513 0.12319,-0.0441 0.18759,-0.0569c0.0644,-0.0128 0.12943,-0.0192 0.19509,-0.0192h5.58c0.7842,0 1.42,-0.6358 1.42,-1.42c0,-0.78977 -0.6302,-1.43 -1.42,-1.43h-5.58c-0.75386,0 -1.23664,-0.80243 -0.88349,-1.46845l1.14,-2.15c0.03076,-0.05801 0.06688,-0.11247 0.10837,-0.16336c0.04149,-0.0509 0.08754,-0.09726 0.13815,-0.13908c0.05062,-0.04183 0.10483,-0.07831 0.16263,-0.10945c0.05781,-0.03115 0.1181,-0.05636 0.18087,-0.07563c0.06277,-0.01927 0.12681,-0.03223 0.19213,-0.03888c0.06533,-0.00665 0.13067,-0.00687 0.19604,-0.00066c0.06537,0.00622 0.1295,0.01876 0.19239,0.03761c0.0629,0.01885 0.12335,0.04365 0.18136,0.07441c0.05801,0.03076 0.11247,0.06688 0.16336,0.10837c0.05089,0.04149 0.09725,0.08754 0.13908,0.13815c0.04183,0.05062 0.07831,0.10483 0.10945,0.16264c0.03115,0.0578 0.05636,0.11809 0.07563,0.18086c0.01927,0.06277 0.03223,0.12681 0.03888,0.19214c0.00665,0.06532 0.00687,0.13066 0.00065,0.19603c-0.00621,0.06537 -0.01875,0.1295 -0.0376,0.19239c-0.01885,0.0629 -0.04365,0.12335 -0.07441,0.18136z"></path></g></g></svg>