<svg xmlns="http://www.w3.org/2000/svg" xmlns:xlink="http://www.w3.org/1999/xlink" width="24" height="24" viewBox="0 0 24 24" fill="none"><g opacity="1"  transform="translate(0 0)  rotate(0)"><path id="Rectangle 70" fill-rule="evenodd" style="fill:#E1E2E5" opacity="0.0001" d="M0 24L24 24L24 0L0 0L0 24Z"></path><path  id="Rectangle 232" style="fill:#323233; opacity:1;" d="M4,20h16c0.5523,0 1,-0.4477 1,-1v-14c0,-0.55228 -0.4477,-1 -1,-1h-16c-0.55228,0 -1,0.44772 -1,1v14c0,0.5523 0.44772,1 1,1zM4,22c-1.65685,0 -3,-1.3431 -3,-3v-14c0,-1.65685 1.34315,-3 3,-3h16c1.6569,0 3,1.34315 3,3v14c0,1.6569 -1.3431,3 -3,3z"></path><path  id="Rectangle 233" style="fill:#EF3741; opacity:1;" d="M15,14h7v1h-1v-6h1v1h-7c-0.5523,0 -1,0.4477 -1,1v2c0,0.5523 0.4477,1 1,1zM15,16c-1.6569,0 -3,-1.3431 -3,-3v-2c0,-1.65685 1.3431,-3 3,-3h7c0.5523,0 1,0.44772 1,1v6c0,0.5523 -0.4477,1 -1,1z"></path><path id="Ellipse 42" fill-rule="evenodd" style="fill:#EF3741" opacity="1" d="M16 11C15.45 11 15 11.45 15 12C15 12.55 15.45 13 16 13C16.55 13 17 12.55 17 12C17 11.45 16.55 11 16 11Z"></path></g></svg>