<svg xmlns="http://www.w3.org/2000/svg" xmlns:xlink="http://www.w3.org/1999/xlink" width="16" height="16" viewBox="0 0 16 16" fill="none"><g opacity="1"  transform="translate(0 0)  rotate(0)"><path id="Rectangle 74" fill-rule="evenodd" style="fill:#E1E2E5" opacity="0.0001" d="M0 16L16 16L16 0L0 0L0 16Z"></path><path  id="Vector 20" style="fill:#000000; opacity:0.4;" d="M10.3536,3.64645l4,4c0.1952,0.19526 0.1952,0.51184 0,0.7071l-4,4.00005c-0.02327,0.0232 -0.04853,0.0439 -0.0758,0.0621c-0.02733,0.01827 -0.05617,0.03367 -0.0865,0.0462c-0.03033,0.0126 -0.0616,0.0221 -0.0938,0.0285c-0.0322,0.0064 -0.0647,0.0096 -0.0975,0.0096c-0.03283,0 -0.06535,-0.0032 -0.09755,-0.0096c-0.0322,-0.0064 -0.06346,-0.0159 -0.09379,-0.0285c-0.03033,-0.01253 -0.05915,-0.02793 -0.08645,-0.0462c-0.02729,-0.0182 -0.05255,-0.0389 -0.07576,-0.0621c-0.02322,-0.02327 -0.04395,-0.04853 -0.06219,-0.0758c-0.01824,-0.02733 -0.03364,-0.05617 -0.0462,-0.0865c-0.01257,-0.03033 -0.02205,-0.0616 -0.02845,-0.0938c-0.00641,-0.0322 -0.00961,-0.0647 -0.00961,-0.0975c0,-0.0328 0.0032,-0.0653 0.00961,-0.0975c0.0064,-0.0322 0.01588,-0.06347 0.02845,-0.0938c0.01256,-0.03033 0.02796,-0.05917 0.0462,-0.0865c0.01824,-0.02727 0.03897,-0.05253 0.06219,-0.0758l3.99995,-3.99995l0.3536,0.35355l-0.3536,0.35355l-3.99995,-4c-0.02322,-0.02321 -0.04395,-0.04847 -0.06219,-0.07577c-0.01824,-0.02729 -0.03364,-0.05611 -0.0462,-0.08644c-0.01257,-0.03033 -0.02205,-0.0616 -0.02845,-0.0938c-0.00641,-0.03219 -0.00961,-0.06471 -0.00961,-0.09754c0,-0.03283 0.0032,-0.06535 0.00961,-0.09755c0.0064,-0.0322 0.01588,-0.06346 0.02845,-0.09379c0.01256,-0.03033 0.02796,-0.05915 0.0462,-0.08645c0.01824,-0.02729 0.03897,-0.05255 0.06219,-0.07576c0.02321,-0.02322 0.04847,-0.04395 0.07576,-0.06219c0.0273,-0.01823 0.05612,-0.03363 0.08645,-0.0462c0.03033,-0.01257 0.06159,-0.02205 0.09379,-0.02845c0.0322,-0.00641 0.06472,-0.00961 0.09755,-0.00961c0.0328,0 0.0653,0.0032 0.0975,0.00961c0.0322,0.0064 0.06347,0.01588 0.0938,0.02845c0.03033,0.01257 0.05917,0.02797 0.0865,0.0462c0.02727,0.01824 0.05253,0.03897 0.0758,0.06219z"></path></g></svg>