<svg xmlns="http://www.w3.org/2000/svg" xmlns:xlink="http://www.w3.org/1999/xlink" width="24" height="24" viewBox="0 0 24 24" fill="none"><g opacity="1"  transform="translate(0 0)  rotate(0)"><path id="Rectangle 71" fill-rule="evenodd" style="fill:#E1E2E5" opacity="0.0001" d="M0 24L24 24L24 0L0 0L0 24Z"></path><g opacity="1"  transform="translate(2 3)  rotate(0)"><path  id="Rectangle 236" style="fill:#323233; opacity:1;" d="M2.89443,4.44721l-1.79,3.58c-0.06874,0.13748 -0.10443,0.28908 -0.10443,0.44279v5.53c0,0.5523 0.44772,1 1,1h16c0.5523,0 1,-0.4477 1,-1v-12c0,-0.55228 -0.4477,-1 -1,-1h-9c-0.55229,0 -1,0.44772 -1,1v3h-6v-1zM1.38197,3h5.61803v1h-1v-2c0,-1.65685 1.34315,-3 3,-3h9c1.6569,0 3,1.34315 3,3v12c0,1.6569 -1.3431,3 -3,3h-16c-1.65685,0 -3,-1.3431 -3,-3v-5.53c0,-0.4642 0.10798,-0.92202 0.31557,-1.33721l1.79,-3.58z"></path><path id="Ellipse 44" fill-rule="evenodd" style="fill:#FFFFFF" opacity="1" d="M16 14C14.9 14 14 14.9 14 16C14 17.1 14.9 18 16 18C17.1 18 18 17.1 18 16C18 14.9 17.1 14 16 14Z"></path><path  id="Ellipse 44" style="fill:#EF3741; opacity:1;" d="M16,15c-0.5523,0 -1,0.4477 -1,1c0,0.5523 0.4477,1 1,1c0.5523,0 1,-0.4477 1,-1c0,-0.5523 -0.4477,-1 -1,-1zM16,13c1.6569,0 3,1.3431 3,3c0,1.6569 -1.3431,3 -3,3c-1.6569,0 -3,-1.3431 -3,-3c0,-1.6569 1.3431,-3 3,-3z"></path><path id="Ellipse 45" fill-rule="evenodd" style="fill:#FFFFFF" opacity="1" d="M5 14C3.9 14 3 14.9 3 16C3 17.1 3.9 18 5 18C6.1 18 7 17.1 7 16C7 14.9 6.1 14 5 14Z"></path><path  id="Ellipse 45" style="fill:#EF3741; opacity:1;" d="M5,15c-0.55228,0 -1,0.4477 -1,1c0,0.5523 0.44772,1 1,1c0.55228,0 1,-0.4477 1,-1c0,-0.5523 -0.44772,-1 -1,-1zM5,13c1.65685,0 3,1.3431 3,3c0,1.6569 -1.34315,3 -3,3c-1.65685,0 -3,-1.3431 -3,-3c0,-1.6569 1.34315,-3 3,-3z"></path></g></g></svg>