<svg xmlns="http://www.w3.org/2000/svg" xmlns:xlink="http://www.w3.org/1999/xlink" width="16" height="16" viewBox="0 0 16 16" fill="none"><g opacity="0.9"  transform="translate(0 0)  rotate(0)"><path id="矩形" fill-rule="evenodd" style="fill:#000000" opacity="0" d="M0 16L16 16L16 0L0 0L0 16Z"></path><path id="路径" fill-rule="evenodd" style="fill:#A8A8A8" opacity="1" d="M11.1555 7.40771L6.02546 2.26771C5.69546 1.94771 5.16546 1.94771 4.84546 2.26771C4.51546 2.59771 4.51546 3.12771 4.84546 3.45771L9.38546 7.99771L4.84546 12.5477C4.51546 12.8677 4.51546 13.3977 4.84546 13.7277C5.16546 14.0577 5.69546 14.0577 6.02546 13.7277L11.1555 8.58771C11.3255 8.42771 11.4055 8.21771 11.4055 7.99771C11.4055 7.78771 11.3255 7.56771 11.1555 7.40771Z"></path></g></svg>