<svg xmlns="http://www.w3.org/2000/svg" xmlns:xlink="http://www.w3.org/1999/xlink" width="24" height="24" viewBox="0 0 24 24" fill="none"><g opacity="1"  transform="translate(0 0)  rotate(0)"><path id="Rectangle 74" fill-rule="evenodd" style="fill:#E1E2E5" opacity="0.0001" d="M0 24L24 24L24 0L0 0L0 24Z"></path><path  id="Rectangle 234" style="fill:#323233; opacity:1;" d="M4,20h16c0.5523,0 1,-0.4477 1,-1v-14c0,-0.55228 -0.4477,-1 -1,-1h-16c-0.55228,0 -1,0.44772 -1,1v14c0,0.5523 0.44772,1 1,1zM4,22c-1.65685,0 -3,-1.3431 -3,-3v-14c0,-1.65685 1.34315,-3 3,-3h16c1.6569,0 3,1.34315 3,3v14c0,1.6569 -1.3431,3 -3,3z"></path><path id="Rectangle 235" fill-rule="evenodd" style="fill:#FFFFFF" opacity="1" d="M9 11L12 9.8L15 11L15 3L9 3L9 11Z"></path><path  id="Rectangle 235" style="fill:#EF3741; opacity:1;" d="M8.62861,10.0715l2.99999,-1.19998c0.2384,-0.09536 0.5044,-0.09536 0.7428,0l3,1.19998l-0.3714,0.9285h-1v-8h1v1h-6v-1h1v8h-1zM9.37139,11.9285c-0.65686,0.2627 -1.37139,-0.221 -1.37139,-0.9285v-8c0,-0.55228 0.44772,-1 1,-1h6c0.5523,0 1,0.44772 1,1v8c0,0.7075 -0.7145,1.1912 -1.3714,0.9285l-3,-1.2l0.3714,-0.9285l0.3714,0.9285z"></path></g></svg>